<?xml version="1.0" encoding="UTF-8"?>
<svg width="24px" height="24px" viewBox="0 0 24 24" version="1.1" xmlns="http://www.w3.org/2000/svg" xmlns:xlink="http://www.w3.org/1999/xlink">
    <!-- Generator: Sketch 52.5 (67469) - http://www.bohemiancoding.com/sketch -->
    <title>close</title>
    <desc>Created with Sketch.</desc>
    <g id="Page-1-Copy" stroke="none" stroke-width="1" fill="none" fill-rule="evenodd">
        <g id="iPhone-XS" transform="translate(-68.000000, -54.000000)">
            <g id="iPhone-X/Bars/Navigation/Navigation-Bar---1-Action">
                <g id="Group" transform="translate(68.000000, 54.000000)">
                    <rect id="Rectangle" fill-rule="nonzero" x="0" y="0" width="24" height="24"></rect>
                    <path d="M13.3934169,11.9411021 L21.6704988,3.70695818 C22.0618775,3.31756526 22.0638634,2.68653943 21.6744705,2.29516061 C21.2840578,1.90276205 20.6540518,1.90179593 20.2626729,2.29118885 L11.9836052,10.5262989 L3.77645847,2.29414086 C3.38808533,1.90474794 2.75603972,1.90276208 2.3646609,2.29215499 C1.9742482,2.68154791 1.97328212,3.31353986 2.36267504,3.70497234 L10.5678359,11.9350909 L2.29477953,20.1642433 C1.90340075,20.5536362 1.90141485,21.184662 2.29080777,21.5760409 C2.48547738,21.7717303 2.7420849,21.8705947 2.99869242,21.8705947 C3.25331407,21.8705947 3.50788203,21.7737698 3.70260533,21.5800663 L11.9777013,13.348928 L20.2597747,21.655959 C20.4544443,21.8516484 20.7100857,21.9494931 20.9666933,21.9494931 C21.222281,21.9494931 21.4769027,21.8516484 21.6715723,21.6579449 C22.061985,21.268552 22.062951,20.6375261 21.6735581,20.2461473 L13.3934169,11.9411021 Z" id="Path" fill="#000000"></path>
                </g>
            </g>
        </g>
    </g>
</svg>