<?xml version="1.0" encoding="UTF-8"?>
<svg width="24px" height="24px" viewBox="0 0 24 24" version="1.1" xmlns="http://www.w3.org/2000/svg" xmlns:xlink="http://www.w3.org/1999/xlink">
    <!-- Generator: Sketch 52.5 (67469) - http://www.bohemiancoding.com/sketch -->
    <title>share</title>
    <desc>Created with Sketch.</desc>
    <g id="Page-1-Copy" stroke="none" stroke-width="1" fill="none" fill-rule="evenodd">
        <g id="iPhone-XS" transform="translate(-331.000000, -54.000000)">
            <g id="iPhone-X/Bars/Navigation/Navigation-Bar---1-Action">
                <g id="Group-Copy" transform="translate(331.000000, 54.000000)">
                    <rect id="Rectangle" fill-rule="nonzero" x="0" y="0" width="24" height="24"></rect>
                    <g id="向上5" transform="translate(2.000000, 2.000000)" fill="#000000">
                        <path d="M19.2086331,14.6153846 C18.7842761,14.6153846 18.4412676,14.9592176 18.4412676,15.3845947 L18.4412676,18.4615178 L1.55877362,18.4615178 L1.55877362,15.3845947 C1.55877362,14.9592176 1.21498134,14.6153846 0.791366906,14.6153846 C0.36775247,14.6153846 0.0239601918,14.9592176 0.0239601918,15.3845947 L0.0239601918,19.2307692 C0.0239601918,19.6561463 0.36775247,19.9999793 0.791366906,19.9999793 L19.2086331,19.9999793 C19.6329901,19.9999793 19.9760398,19.6561463 19.9760398,19.2307692 L19.9760398,15.3845947 C19.9760398,14.9592176 19.6329901,14.6153846 19.2086331,14.6153846 Z" id="Path"></path>
                        <path d="M16.8206505,6.47454334 L10.6069786,0.24155149 C10.4542645,0.0877260096 10.2547297,0.0138732452 10.0559787,0.0154032212 C10.0291238,0.0130875721 10.0061053,2.06730769e-05 9.97925036,2.06730769e-05 C9.86721055,2.06730769e-05 9.76284357,0.0261544712 9.66693319,0.0692421394 C9.57023904,0.106168534 9.47816508,0.162323101 9.39986921,0.240765817 L3.18095832,6.46970526 C2.88089293,6.7697063 2.88015041,7.25661356 3.18017453,7.55740026 C3.3297947,7.70816577 3.52627691,7.78354853 3.72350163,7.78354853 C3.91994257,7.78354853 4.11564098,7.70816577 4.26604494,7.55893026 L9.21184365,2.60310339 L9.21184365,16.1538875 C9.21184365,16.5792646 9.55563592,16.9230976 9.97925036,16.9230976 C10.4028648,16.9230976 10.7466571,16.5792646 10.7466571,16.1538875 L10.7466571,2.56539135 L15.7325113,7.55913702 C15.8821727,7.70990252 16.08014,7.78607096 16.2765809,7.78607096 C16.4730218,7.78607096 16.6679365,7.71147387 16.8175979,7.56223834 C17.1191483,7.26298161 17.1199321,6.77528868 16.8206505,6.47454334 Z" id="Path"></path>
                    </g>
                </g>
            </g>
        </g>
    </g>
</svg>